<svg width="600" height="141" viewBox="0 0 600 141" fill="none" xmlns="http://www.w3.org/2000/svg">
<path d="M1.31705 86.6344V1.02466H19.6097V86.6344H1.31705Z" fill="white"/>
<path d="M74.0486 86.6338C49.7559 86.6338 31.7559 67.7558 31.7559 43.0241C31.7559 17.8533 49.6095 1.17041 74.0486 1.17041H121.317V19.4631H74.0486C60.2925 19.4631 50.1949 29.707 50.1949 43.9021C50.1949 58.0972 60.1461 68.1948 74.0486 68.1948H108.146V50.3411H71.9998V35.8533H126.439V86.6338H74.0486Z" fill="white"/>
<path d="M156.146 29.7073V86.6341H138.732V10.8293C138.732 4.09756 142.244 0 147.951 0C150.585 0 152.78 0.878049 155.414 3.36585L211.463 57.2195V0.292683H229.024V76.9756C229.024 83.8537 225.219 87.9512 219.805 87.9512C217.024 87.9512 214.683 86.9268 212.341 84.439L156.146 29.7073Z" fill="white"/>
<path d="M242.927 86.6344V1.02466H261.22V86.6344H242.927Z" fill="white"/>
<path d="M302.195 86.6344V19.4637H270.732V1.02466H351.951V19.3173H320.488V86.4881H302.195V86.6344Z" fill="white"/>
<path d="M361.463 86.6344V1.02466H379.756V86.6344H361.463Z" fill="white"/>
<path d="M434.049 86.6338C409.756 86.6338 391.756 67.7558 391.756 43.0241C391.756 17.8533 409.61 1.17041 434.049 1.17041H455.268C480.439 1.17041 497.854 18.2924 497.854 43.0241C497.854 67.7558 480 86.6338 455.268 86.6338H434.049ZM455.268 68.1948C469.463 68.1948 479.561 57.9509 479.561 43.9021C479.561 29.707 469.61 19.4631 455.268 19.4631H434.049C420.293 19.4631 410.195 29.707 410.195 43.9021C410.195 58.0972 420.146 68.1948 434.049 68.1948H455.268Z" fill="white"/>
<path d="M525.951 29.7073V86.6341H508.537V10.8293C508.537 4.09756 512.049 0 517.756 0C520.39 0 522.585 0.878049 525.22 3.36585L581.268 57.2195V0.292683H598.829V76.9756C598.829 83.8537 595.025 87.9512 589.61 87.9512C586.829 87.9512 584.488 86.9268 582.146 84.439L525.951 29.7073Z" fill="white"/>
<path d="M23.561 140.488L20.3415 135.219H10.3902L12.1463 132.146H18.5854L13.9024 124.244L4.2439 140.488H0L12.1463 120.146C12.5854 119.414 13.1707 118.975 13.9024 118.975C14.6341 118.975 15.2195 119.414 15.6585 120.146L27.9512 140.488H23.561Z" fill="white"/>
<path d="M49.9025 140.488C44.0489 140.488 39.6586 135.805 39.6586 129.659C39.6586 123.366 44.0489 119.268 49.9025 119.268H61.4635V122.927H50.0489C46.244 122.927 43.4635 125.707 43.4635 129.805C43.4635 133.756 46.244 136.683 50.0489 136.683H59.122V131.122H49.6099V128.049H62.9269V140.488H49.9025Z" fill="white"/>
<path d="M66.8781 140.488V119.268H70.5367V136.683H84.8781V140.488H66.8781Z" fill="white"/>
<path d="M97.9023 140.488C92.0486 140.488 87.6584 135.805 87.6584 129.659C87.6584 123.366 92.0486 119.268 97.9023 119.268H103.024C109.171 119.268 113.414 123.512 113.414 129.659C113.414 135.805 109.024 140.488 103.024 140.488H97.9023ZM103.024 136.829C106.975 136.829 109.756 133.902 109.756 129.951C109.756 126 106.975 123.073 103.024 123.073H97.9023C94.0974 123.073 91.3169 125.854 91.3169 129.951C91.3169 133.902 94.0974 136.829 97.9023 136.829H103.024Z" fill="white"/>
<path d="M117.073 140.488V119.268H132.585C136.683 119.268 139.463 121.171 139.463 124.683C139.463 127.317 138.146 128.634 136.537 129.22C138.439 129.805 139.902 131.561 139.902 134.049C139.902 137.854 137.268 140.488 133.024 140.488H117.073ZM123.512 131.268V128.195H132.732C134.78 128.195 135.805 127.463 135.805 125.561C135.805 123.366 134.049 122.927 131.268 122.927H120.878V136.683H131.561C134.195 136.683 136.098 135.951 136.098 133.902C136.098 132.146 134.927 131.122 132.878 131.122H123.512V131.268Z" fill="white"/>
<path d="M164.342 140.488L161.122 135.219H151.025L152.781 132.146H159.22L154.537 124.244L145.025 140.488H140.781L152.927 120.146C153.366 119.414 153.951 118.975 154.683 118.975C155.415 118.975 156 119.414 156.439 120.146L168.586 140.488H164.342Z" fill="white"/>
<path d="M171.805 140.488V119.268H175.463V136.683H189.658V140.488H171.805Z" fill="white"/>
<path d="M202.39 140.488V136.829H218.341C220.39 136.829 221.415 135.659 221.415 134.049C221.415 132.293 220.244 131.268 218.341 131.268H208.537C204.585 131.268 202.098 128.781 202.098 125.268C202.098 121.902 204.439 119.268 208.683 119.268H223.902V122.927H208.683C206.927 122.927 206.049 123.951 206.049 125.561C206.049 127.171 207.073 128.195 208.683 128.195H218.341C222.585 128.195 224.927 130.244 224.927 134.341C224.927 137.854 222.732 140.488 218.341 140.488H202.39Z" fill="white"/>
<path d="M238.39 140.488C232.537 140.488 228.146 135.805 228.146 129.659C228.146 123.366 232.537 119.268 238.39 119.268H243.512C249.658 119.268 253.902 123.512 253.902 129.659C253.902 135.805 249.512 140.488 243.512 140.488H238.39ZM243.512 136.829C247.463 136.829 250.244 133.902 250.244 129.951C250.244 126 247.463 123.073 243.512 123.073H238.39C234.585 123.073 231.805 125.854 231.805 129.951C231.805 133.902 234.585 136.829 238.39 136.829H243.512Z" fill="white"/>
<path d="M257.707 140.488V119.268H261.366V136.683H275.561V140.488H257.707Z" fill="white"/>
<path d="M301.025 140.488L297.805 135.219H287.708L289.464 132.146H295.903L291.22 124.244L281.854 140.488H277.61L289.756 120.146C290.195 119.414 290.781 118.975 291.512 118.975C292.39 118.975 292.829 119.414 293.268 120.146L305.415 140.488H301.025Z" fill="white"/>
<path d="M312 124.975V140.488H308.488V121.17C308.488 119.853 309.219 118.975 310.39 118.975C310.975 118.975 311.414 119.122 312 119.707L326.927 134.634V119.122H330.439V138.585C330.439 140.049 329.707 140.78 328.536 140.78C327.951 140.78 327.366 140.488 326.78 140.049L312 124.975Z" fill="white"/>
<path d="M356.781 140.488L353.561 135.219H343.464L345.22 132.146H351.659L346.976 124.244L337.464 140.488H333.22L345.366 120.146C345.805 119.414 346.39 118.975 347.122 118.975C348 118.975 348.439 119.414 348.878 120.146L361.025 140.488H356.781Z" fill="white"/>
<path d="M373.61 140.488V119.268H377.268V140.488H373.61ZM390.585 140.488V131.268H379.902V127.902H390.585V119.122H394.244V140.488H390.585Z" fill="white"/>
<path d="M420.878 140.488L417.658 135.219H407.561L409.317 132.146H415.756L411.073 124.244L401.561 140.488H397.317L409.463 120.146C409.902 119.414 410.488 118.975 411.219 118.975C412.097 118.975 412.537 119.414 412.976 120.146L425.122 140.488H420.878Z" fill="white"/>
<path d="M435.073 140.488C429.219 140.488 424.829 135.805 424.829 129.659C424.829 123.366 429.219 119.268 435.073 119.268H446.488V122.927H435.073C431.268 122.927 428.487 125.707 428.487 129.805C428.487 133.756 431.268 136.683 435.073 136.683H446.488V140.488H435.073Z" fill="white"/>
<path d="M450.293 140.488V119.268H453.951V140.488H450.293ZM467.854 140.488L456 131.122C455.415 130.683 455.268 130.097 455.268 129.512C455.268 128.927 455.415 128.341 456.146 127.756L467.415 119.122H473.122L459.22 129.512L473.561 140.341H467.854V140.488Z" fill="white"/>
<path d="M498.586 140.488L495.366 135.219H485.269L487.025 132.146H493.464L488.781 124.244L479.415 140.488H475.171L487.317 120.146C487.756 119.414 488.342 118.975 489.074 118.975C489.952 118.975 490.391 119.414 490.83 120.146L502.976 140.488H498.586Z" fill="white"/>
<path d="M509.122 140.488V122.927H501.073V119.268H520.829V122.927H512.78V140.488H509.122Z" fill="white"/>
<path d="M524.049 140.488V119.268H527.707V140.488H524.049ZM541.171 140.488V131.268H530.488V127.902H541.171V119.122H544.829V140.488H541.171Z" fill="white"/>
<path d="M558.878 140.488C553.024 140.488 548.634 135.805 548.634 129.659C548.634 123.366 553.024 119.268 558.878 119.268H564C570.146 119.268 574.39 123.512 574.39 129.659C574.39 135.805 570 140.488 564 140.488H558.878ZM564 136.829C567.951 136.829 570.731 133.902 570.731 129.951C570.731 126 567.951 123.073 564 123.073H558.878C555.073 123.073 552.292 125.854 552.292 129.951C552.292 133.902 555.073 136.829 558.878 136.829H564Z" fill="white"/>
<path d="M581.561 124.975V140.488H578.049V121.17C578.049 119.853 578.78 118.975 579.951 118.975C580.536 118.975 580.975 119.122 581.561 119.707L596.488 134.634V119.122H600V138.585C600 140.049 599.268 140.78 598.097 140.78C597.512 140.78 596.927 140.488 596.341 140.049L581.561 124.975Z" fill="white"/>
</svg>
